# xmcd
#
# Track frame offsets:
#	150
#	24329
#	44975
#	102146
#	133742
#	199800
#	228761
#
# Disc length: 3485 seconds
#
# Revision: 0
# Processed by: cddbd v1.5.2PL0 Copyright (c) Steve Scherf et al.
# Submitted via: audiograbber 1.83.01
#
DISCID=5a0d9b07
DTITLE=Mark Knopfler - Live in Sofia 2013
DYEAR=2013
DGENRE=Folk-Rock
TTITLE0=Done With Bonaparte
TTITLE1=Haul Away
TTITLE2=Marbletown
TTITLE3=Speedway At Nazareth
TTITLE4=Telegraph Road
TTITLE5=So Far Away
TTITLE6=Piper To The End
EXTD=
EXTT0=
EXTT1=
EXTT2=
EXTT3=
EXTT4=
EXTT5=
EXTT6=
PLAYORDER=
